<svg width="38" height="26" viewBox="0 0 38 26" fill="none" xmlns="http://www.w3.org/2000/svg">
<path d="M3.89062 8.60938L0.316406 7.57812L0.960938 5.59766L4.5 6.96875L4.32422 2.9375H6.42188L6.24609 7.03906L9.72656 5.69141L10.3594 7.70703L6.72656 8.73828L9.07031 11.8555L7.37109 13.0977L5.26172 9.72266L3.17578 12.9922L1.46484 11.7969L3.89062 8.60938ZM13.793 17C14.3242 17 14.7344 17.1523 15.0234 17.457C15.3125 17.7539 15.457 18.1289 15.457 18.582C15.457 19.0273 15.3125 19.3984 15.0234 19.6953C14.7344 19.9844 14.3242 20.1289 13.793 20.1289C13.2852 20.1289 12.8828 19.9844 12.5859 19.6953C12.2891 19.4062 12.1406 19.0352 12.1406 18.582C12.1406 18.1289 12.2852 17.7539 12.5742 17.457C12.8633 17.1523 13.2695 17 13.793 17ZM13.793 7.05078C14.3242 7.05078 14.7344 7.20312 15.0234 7.50781C15.3125 7.80469 15.457 8.17969 15.457 8.63281C15.457 9.07812 15.3125 9.44922 15.0234 9.74609C14.7344 10.0352 14.3242 10.1797 13.793 10.1797C13.2852 10.1797 12.8828 10.0352 12.5859 9.74609C12.2891 9.45703 12.1406 9.08594 12.1406 8.63281C12.1406 8.17969 12.2852 7.80469 12.5742 7.50781C12.8633 7.20312 13.2695 7.05078 13.793 7.05078ZM17.918 13.543C17.918 12.3008 18.1641 11.1836 18.6562 10.1914C19.1484 9.19141 19.8398 8.42578 20.7305 7.89453C21.6211 7.35547 22.6445 7.08594 23.8008 7.08594C25.5117 7.08594 26.8984 7.63672 27.9609 8.73828C29.0312 9.83984 29.6094 11.3008 29.6953 13.1211L29.707 13.7891C29.707 15.0391 29.4648 16.1562 28.9805 17.1406C28.5039 18.125 27.8164 18.8867 26.918 19.4258C26.0273 19.9648 24.9961 20.2344 23.8242 20.2344C22.0352 20.2344 20.6016 19.6406 19.5234 18.4531C18.4531 17.2578 17.918 15.668 17.918 13.6836V13.543ZM20.7656 13.7891C20.7656 15.0938 21.0352 16.1172 21.5742 16.8594C22.1133 17.5938 22.8633 17.9609 23.8242 17.9609C24.7852 17.9609 25.5312 17.5859 26.0625 16.8359C26.6016 16.0859 26.8711 14.9883 26.8711 13.543C26.8711 12.2617 26.5938 11.2461 26.0391 10.4961C25.4922 9.74609 24.7461 9.37109 23.8008 9.37109C22.8711 9.37109 22.1328 9.74219 21.5859 10.4844C21.0391 11.2188 20.7656 12.3203 20.7656 13.7891ZM37.6055 13.25C37.6055 14.9844 37.3672 16.6602 36.8906 18.2773C36.4141 19.8867 35.6914 21.3516 34.7227 22.6719C33.7539 24 32.7422 24.918 31.6875 25.4258L31.125 23.8438C32.2969 22.9375 33.2227 21.5547 33.9023 19.6953C34.5898 17.8281 34.9336 15.6992 34.9336 13.3086V13.0391C34.9336 10.8672 34.6367 8.89062 34.043 7.10938C33.4492 5.32031 32.5977 3.88672 31.4883 2.80859L31.125 2.48047L31.6875 0.886719C32.6875 1.37109 33.6562 2.23047 34.5938 3.46484C35.5312 4.69922 36.25 6.08203 36.75 7.61328C37.25 9.13672 37.5312 10.7109 37.5938 12.3359L37.6055 13.25Z" fill="white"/>
</svg>
