<svg width="40" height="21" viewBox="0 0 40 21" fill="none" xmlns="http://www.w3.org/2000/svg">
<path d="M0.925781 11.543C0.925781 10.3008 1.17188 9.18359 1.66406 8.19141C2.15625 7.19141 2.84766 6.42578 3.73828 5.89453C4.62891 5.35547 5.65234 5.08594 6.80859 5.08594C8.51953 5.08594 9.90625 5.63672 10.9688 6.73828C12.0391 7.83984 12.6172 9.30078 12.7031 11.1211L12.7148 11.7891C12.7148 13.0391 12.4727 14.1562 11.9883 15.1406C11.5117 16.125 10.8242 16.8867 9.92578 17.4258C9.03516 17.9648 8.00391 18.2344 6.83203 18.2344C5.04297 18.2344 3.60938 17.6406 2.53125 16.4531C1.46094 15.2578 0.925781 13.668 0.925781 11.6836V11.543ZM3.77344 11.7891C3.77344 13.0938 4.04297 14.1172 4.58203 14.8594C5.12109 15.5938 5.87109 15.9609 6.83203 15.9609C7.79297 15.9609 8.53906 15.5859 9.07031 14.8359C9.60938 14.0859 9.87891 12.9883 9.87891 11.543C9.87891 10.2617 9.60156 9.24609 9.04688 8.49609C8.5 7.74609 7.75391 7.37109 6.80859 7.37109C5.87891 7.37109 5.14062 7.74219 4.59375 8.48438C4.04688 9.21875 3.77344 10.3203 3.77344 11.7891ZM24.4453 20.2383H13.6992V18H24.4453V20.2383ZM39.8438 9.91406C39.8438 11.5859 39.5547 13.0547 38.9766 14.3203C38.3984 15.5781 37.5703 16.5469 36.4922 17.2266C35.4219 17.8984 34.1875 18.2344 32.7891 18.2344C31.4062 18.2344 30.1719 17.8984 29.0859 17.2266C28.0078 16.5469 27.1719 15.582 26.5781 14.332C25.9922 13.082 25.6953 11.6406 25.6875 10.0078V9.04688C25.6875 7.38281 25.9805 5.91406 26.5664 4.64062C27.1602 3.36719 27.9922 2.39453 29.0625 1.72266C30.1406 1.04297 31.375 0.703125 32.7656 0.703125C34.1562 0.703125 35.3867 1.03906 36.457 1.71094C37.5352 2.375 38.3672 3.33594 38.9531 4.59375C39.5391 5.84375 39.8359 7.30078 39.8438 8.96484V9.91406ZM36.8789 9.02344C36.8789 7.13281 36.5195 5.68359 35.8008 4.67578C35.0898 3.66797 34.0781 3.16406 32.7656 3.16406C31.4844 3.16406 30.4805 3.66797 29.7539 4.67578C29.0352 5.67578 28.668 7.09375 28.6523 8.92969V9.91406C28.6523 11.7891 29.0156 13.2383 29.7422 14.2617C30.4766 15.2852 31.4922 15.7969 32.7891 15.7969C34.1016 15.7969 35.1094 15.2969 35.8125 14.2969C36.5234 13.2969 36.8789 11.8359 36.8789 9.91406V9.02344Z" fill="white"/>
</svg>
